<svg width="76" height="17" viewBox="0 0 76 17" fill="none" xmlns="http://www.w3.org/2000/svg">
<path d="M8.94407 4.35031C8.94407 1.95253 6.93869 0 4.47204 0C2.00538 0 0 1.9508 0 4.35031C0 6.74983 2.00538 8.70062 4.47204 8.70062C6.93869 8.70062 8.94407 6.74983 8.94407 4.35031ZM2.71421 4.35031C2.71421 3.4061 3.50318 2.6386 4.47204 2.6386C5.44089 2.6386 6.23164 3.4061 6.23164 4.35031C6.23164 5.29452 5.44267 6.06029 4.47204 6.06029C3.5014 6.06029 2.71421 5.29279 2.71421 4.35031Z" fill="#363636"/>
<path d="M15.6919 0H12.9795V8.70062H15.6919V0Z" fill="#363636"/>
<path d="M5.45917 12.2349V10.1975H2.56152V12.2523C2.56152 14.5184 4.45648 16.3618 6.786 16.3618H16.186V13.6539H6.91601C6.11101 13.6539 5.45739 13.018 5.45739 12.2349H5.45917Z" fill="#363636"/>
<path d="M54.564 0.00354004H51.8516V8.70416H54.564V0.00354004Z" fill="#363636"/>
<path d="M46.3907 8.06483C46.5723 8.37148 46.868 8.59151 47.2224 8.68334C47.5768 8.77516 47.9454 8.72838 48.2607 8.55167C48.9143 8.18437 49.1387 7.36837 48.7611 6.73254L45.9027 0.109185L45.8528 0.024292H42.6364L39.7636 6.73427C39.582 7.04092 39.5339 7.39955 39.6283 7.74432C39.7227 8.08909 39.9489 8.37668 40.2641 8.5534C40.4796 8.67467 40.7129 8.73184 40.9462 8.73184C41.4199 8.73184 41.8794 8.49276 42.1341 8.06656L44.2499 2.64903L46.3907 8.06656V8.06483Z" fill="#363636"/>
<path d="M51.6663 14.3243V16.3618H54.5639V14.307C54.5639 12.0409 52.669 10.1975 50.3395 10.1975H40.9395V12.9054H50.2094C51.0144 12.9054 51.6681 13.5412 51.6681 14.3243H51.6663Z" fill="#363636"/>
<path d="M26.0041 8.06483C26.1858 8.37148 26.4814 8.59151 26.8358 8.68334C27.1902 8.77516 27.5589 8.72838 27.8741 8.55167C28.5278 8.18437 28.7522 7.36837 28.3746 6.73254L25.5179 0.109185L25.468 0.024292H22.2516L19.3789 6.73427C19.1972 7.04092 19.1491 7.39955 19.2435 7.74432C19.3379 8.08909 19.5641 8.37668 19.8793 8.5534C20.0948 8.67467 20.3281 8.73184 20.5614 8.73184C21.0352 8.73184 21.4965 8.49276 21.7494 8.06656L23.8652 2.64903L26.0059 8.06656L26.0041 8.06483Z" fill="#363636"/>
<path d="M34.093 0.024292H32.3886C30.8712 0.024292 29.9023 1.06033 29.9023 2.33372V8.72838H32.6201V3.41653C32.6201 3.14626 32.8979 2.92623 33.2417 2.92623C33.5854 2.92623 33.8632 3.14626 33.8632 3.41653V8.72838H36.5739V2.33372C36.5739 1.06033 35.6122 0.024292 34.0948 0.024292H34.093Z" fill="#363636"/>
<path d="M32.6475 9.94983H24.4639C22.576 9.94983 21.0391 11.445 21.0391 13.2814C21.0391 15.1179 22.5743 16.613 24.4639 16.613H32.6475C34.5353 16.613 36.0723 15.1196 36.0723 13.2814C36.0723 11.4432 34.5371 9.94983 32.6475 9.94983ZM32.6475 13.8791H24.4639C24.1237 13.8791 23.8477 13.6106 23.8477 13.2797C23.8477 12.9488 24.1237 12.6803 24.4639 12.6803H32.6475C32.9876 12.6803 33.2637 12.9488 33.2637 13.2797C33.2637 13.6106 32.9876 13.8791 32.6475 13.8791Z" fill="#363636"/>
<path d="M74.1746 3.26577H72.5806V0H69.8682V8.70236H72.5806V5.81774H74.1746C74.8976 5.81774 75.4854 5.24602 75.4854 4.54089C75.4854 3.83576 74.8976 3.26403 74.1746 3.26403V3.26577Z" fill="#363636"/>
<path d="M60.7353 8.14968L68.6571 8.15488V5.51628L61.0131 5.50761C60.5198 5.50761 60.4931 5.17844 60.4503 4.89258C60.404 4.57899 60.4254 3.96222 60.4379 3.79417C60.4646 3.46153 60.7175 3.18779 61.0612 3.18779H68.6571V0.712049L68.6286 0.561322L60.9063 0.549194C59.0683 0.549194 57.5723 2.0045 57.5723 3.79244C57.5723 4.11815 57.6328 5.60983 57.7575 5.96153C58.2063 7.21759 59.3889 8.07518 60.7335 8.14275V8.15141L60.7353 8.14968Z" fill="#363636"/>
<path d="M70.174 9.94983H61.9922C60.1044 9.94983 58.5674 11.445 58.5674 13.2814C58.5674 15.1179 60.1026 16.613 61.9922 16.613H70.174C72.0619 16.613 73.5988 15.1196 73.5988 13.2814C73.5988 11.4432 72.0636 9.94983 70.174 9.94983ZM70.174 13.8791H61.9904C61.6503 13.8791 61.376 13.6106 61.376 13.2797C61.376 12.9488 61.652 12.6803 61.9904 12.6803H70.174C70.5142 12.6803 70.7902 12.9488 70.7902 13.2797C70.7902 13.6106 70.5142 13.8791 70.174 13.8791Z" fill="#363636"/>
</svg>
