<svg width="32" height="32" viewBox="0 0 32 32" fill="none" xmlns="http://www.w3.org/2000/svg">
<path fill-rule="evenodd" clip-rule="evenodd" d="M15.5886 4.95796C14.6733 4.95796 13.7956 5.32153 13.1484 5.96871C12.5012 6.61589 12.1376 7.49366 12.1376 8.40891V11.3669C12.1376 12.1837 11.4755 12.8458 10.6587 12.8458C9.84184 12.8458 9.17969 12.1837 9.17969 11.3669V8.40891C9.17969 6.70917 9.85491 5.07904 11.0568 3.87713C12.2587 2.67522 13.8888 2 15.5886 2C17.2883 2 18.9185 2.67522 20.1204 3.87713C21.3224 5.07904 21.9976 6.70917 21.9976 8.40891V11.3669C21.9976 12.1837 21.3354 12.8458 20.5185 12.8458C19.7017 12.8458 19.0395 12.1837 19.0395 11.3669V8.40891C19.0395 7.49366 18.676 6.61589 18.0288 5.96871C17.3816 5.32153 16.5038 4.95796 15.5886 4.95796Z" fill="#F9831F"/>
<path d="M5.72858 9.71594C5.22632 9.71594 4.80433 10.0935 4.74867 10.5926L3.07819 25.5699C3.07369 25.6103 3.06758 25.6571 3.06076 25.7095C3.01897 26.0304 2.95005 26.5595 3.05667 27.0696C3.28201 28.1479 4.10411 29.0327 5.17238 29.3297C5.65447 29.4636 6.20238 29.4486 6.53608 29.4393C6.60577 29.4373 6.66611 29.4356 6.71456 29.4356H24.4623C24.5107 29.4356 24.571 29.4373 24.6408 29.4393C24.9745 29.4486 25.5225 29.4636 26.0044 29.3297C27.0728 29.0327 27.8948 28.1477 28.1202 27.0696C28.2268 26.5595 28.1578 26.0304 28.116 25.7095C28.1093 25.6571 28.1032 25.6103 28.0987 25.5699L26.4282 10.5926C26.3726 10.0935 25.9506 9.71594 25.4483 9.71594H5.72858Z" fill="currentColor"/>
</svg>
