<svg width="24" height="24" viewBox="0 0 24 24" fill="none" xmlns="http://www.w3.org/2000/svg">
<path d="M4.04102 20.8164V11.2653L12.0002 3.30615L19.9594 11.2653V20.8164C19.9594 21.6955 19.2467 22.4082 18.3675 22.4082H5.63285C4.75371 22.4082 4.04102 21.6955 4.04102 20.8164Z" fill="currentColor"/>
<path fill-rule="evenodd" clip-rule="evenodd" d="M10.8747 2.18059C11.4963 1.55894 12.5042 1.55894 13.1259 2.18059L22.6769 11.7316C23.2985 12.3533 23.2985 13.3612 22.6769 13.9828C22.0553 14.6045 21.0473 14.6045 20.4257 13.9828L12.0003 5.55738L3.57486 13.9828C2.9532 14.6045 1.94531 14.6045 1.32366 13.9828C0.702009 13.3612 0.702009 12.3533 1.32366 11.7316L10.8747 2.18059Z" fill="currentColor"/>
</svg>
