<svg width="24" height="24" viewBox="0 0 24 24" fill="none" xmlns="http://www.w3.org/2000/svg">
<path fill-rule="evenodd" clip-rule="evenodd" d="M6.45392 1.71436C4.78314 1.71436 3.42871 2.91567 3.42871 4.39759V19.6026C3.42871 21.0844 4.78314 22.2858 6.45392 22.2858H17.5464C19.2171 22.2858 20.5716 21.0844 20.5716 19.6026V4.39759C20.5716 2.91567 19.2171 1.71436 17.5464 1.71436H6.45392ZM7.13508 5.11769C6.50856 5.11769 6.00063 5.6256 6.00063 6.25214C6.00063 6.87869 6.50856 7.3866 7.13508 7.3866H16.967C17.5936 7.3866 18.1015 6.87869 18.1015 6.25214C18.1015 5.6256 17.5936 5.11769 16.967 5.11769H7.13508ZM7.13597 9.65551C6.50943 9.65551 6.00152 10.1634 6.00152 10.79C6.00152 11.4165 6.50943 11.9244 7.13597 11.9244H16.9679C17.5944 11.9244 18.1024 11.4165 18.1024 10.79C18.1024 10.1634 17.5944 9.65551 16.9679 9.65551H7.13597ZM6.00014 15.3278C6.00014 14.7012 6.50805 14.1933 7.13459 14.1933H13.3363C13.9628 14.1933 14.4707 14.7012 14.4707 15.3278C14.4707 15.9544 13.9628 16.4622 13.3363 16.4622H7.13459C6.50805 16.4622 6.00014 15.9544 6.00014 15.3278Z" fill="currentColor"/>
</svg>
