<svg width="24" height="24" viewBox="0 0 24 24" fill="none" xmlns="http://www.w3.org/2000/svg">
<path fill-rule="evenodd" clip-rule="evenodd" d="M10.5302 6.12252C10.5302 8.55707 8.55659 10.5307 6.12203 10.5307C3.68748 10.5307 1.71387 8.55707 1.71387 6.12252C1.71387 3.68796 3.68748 1.71436 6.12203 1.71436C8.55659 1.71436 10.5302 3.68796 10.5302 6.12252ZM22.2853 6.12252C22.2853 8.55707 20.3118 10.5307 17.8771 10.5307C15.4426 10.5307 13.469 8.55707 13.469 6.12252C13.469 3.68796 15.4426 1.71436 17.8771 1.71436C20.3118 1.71436 22.2853 3.68796 22.2853 6.12252ZM6.12203 22.2858C8.55659 22.2858 10.5302 20.3123 10.5302 17.8776C10.5302 15.4431 8.55659 13.4695 6.12203 13.4695C3.68748 13.4695 1.71387 15.4431 1.71387 17.8776C1.71387 20.3123 3.68748 22.2858 6.12203 22.2858ZM22.2853 17.8776C22.2853 20.3123 20.3118 22.2858 17.8771 22.2858C15.4426 22.2858 13.469 20.3123 13.469 17.8776C13.469 15.4431 15.4426 13.4695 17.8771 13.4695C20.3118 13.4695 22.2853 15.4431 22.2853 17.8776Z" fill="currentColor"/>
</svg>
