<svg width="24" height="24" viewBox="0 0 24 24" fill="none" xmlns="http://www.w3.org/2000/svg">
<path fill-rule="evenodd" clip-rule="evenodd" d="M9.83835 3.27965C9.15494 2.59624 8.04688 2.59624 7.36347 3.27965C6.68006 3.96307 6.68006 5.07111 7.36347 5.75453L9.0427 7.43376L3.93424 7.43376C3.28992 7.43376 2.76758 7.9561 2.76758 8.60042L2.76758 20.2671C2.76758 20.9114 3.28992 21.4338 3.93424 21.4338L20.2676 21.4338C20.9118 21.4338 21.4342 20.9114 21.4342 20.2671L21.4342 8.60042C21.4342 7.9561 20.9118 7.43376 20.2676 7.43376L15.1592 7.43376L16.8383 5.75453C17.5217 5.07111 17.5217 3.96307 16.8383 3.27965C16.1548 2.59624 15.047 2.59624 14.3635 3.27965L12.1009 5.54222L9.83835 3.27965Z" fill="#404040"/>
<path fill-rule="evenodd" clip-rule="evenodd" d="M10.6426 21.4338L10.6426 7.43384L13.5592 7.43384L13.5592 21.4338L10.6426 21.4338Z" fill="white"/>
</svg>
