<svg width="24" height="24" viewBox="0 0 24 24" fill="none" xmlns="http://www.w3.org/2000/svg">
<path fill-rule="evenodd" clip-rule="evenodd" d="M4.65265 10.5307C4.65265 7.28462 7.28413 4.65314 10.5302 4.65314C13.7763 4.65314 16.4078 7.28462 16.4078 10.5307C16.4078 13.7768 13.7763 16.4083 10.5302 16.4083C7.28413 16.4083 4.65265 13.7768 4.65265 10.5307ZM10.5302 1.71436C5.66108 1.71436 1.71387 5.66157 1.71387 10.5307C1.71387 15.3999 5.66108 19.3471 10.5302 19.3471C12.4342 19.3471 14.1973 18.7434 15.6385 17.7172L19.777 21.8558C20.3508 22.4296 21.2812 22.4296 21.855 21.8558C22.4288 21.282 22.4288 20.3516 21.855 19.7778L17.7166 15.6393C18.743 14.198 19.3466 12.4349 19.3466 10.5307C19.3466 5.66157 15.3994 1.71436 10.5302 1.71436Z" fill="currentColor"/>
</svg>
