<svg width="18" height="20" viewBox="0 0 18 20" fill="none" xmlns="http://www.w3.org/2000/svg">
<path fill-rule="evenodd" clip-rule="evenodd" d="M8.99997 2.30398C8.34562 2.30398 7.71807 2.56391 7.25537 3.02661C6.79267 3.48931 6.53274 4.11686 6.53274 4.77121V6.88598C6.53274 7.46995 6.05933 7.94337 5.47535 7.94337C4.89137 7.94337 4.41797 7.46995 4.41797 6.88598V4.77121C4.41797 3.55599 4.90071 2.39054 5.76 1.53125C6.61929 0.671955 7.78474 0.189209 8.99997 0.189209C10.2152 0.189209 11.3806 0.671955 12.2399 1.53125C13.0993 2.39054 13.582 3.55599 13.582 4.77121V6.88598C13.582 7.46995 13.1086 7.94337 12.5246 7.94337C11.9406 7.94337 11.4672 7.46995 11.4672 6.88598V4.77121C11.4672 4.11686 11.2073 3.48931 10.7446 3.02661C10.2819 2.56391 9.65432 2.30398 8.99997 2.30398Z" fill="#AAAAAA"/>
<path d="M1.95078 5.70557C1.59169 5.70557 1.29 5.97548 1.2502 6.33236L0.0559003 17.0403C0.0526858 17.0692 0.0483154 17.1026 0.0434373 17.1401C0.0135626 17.3695 -0.0357114 17.7477 0.040519 18.1124C0.201622 18.8833 0.789373 19.5159 1.55313 19.7283C1.89779 19.824 2.28952 19.8133 2.52809 19.8067C2.57792 19.8052 2.62106 19.804 2.6557 19.804H15.3443C15.3789 19.804 15.422 19.8052 15.4719 19.8067C15.7105 19.8133 16.1023 19.824 16.4468 19.7283C17.2107 19.5159 17.7983 18.8832 17.9595 18.1124C18.0357 17.7477 17.9864 17.3695 17.9565 17.1401C17.9517 17.1026 17.9473 17.0692 17.9441 17.0403L16.7498 6.33236C16.7101 5.97548 16.4084 5.70557 16.0493 5.70557H1.95078Z" fill="white"/>
</svg>
